<svg xmlns="http://www.w3.org/2000/svg" version="1.1" xmlns:xlink="http://www.w3.org/1999/xlink" xmlns:svgjs="http://svgjs.com/svgjs" width="1440" height="560" preserveAspectRatio="none" viewBox="0 0 1440 560"><g mask="url(&quot;#SvgjsMask1003&quot;)" fill="none"><rect width="1440" height="560" x="0" y="0" fill="rgba(7, 7, 8, 1)"></rect><path d="M115.17 93.89L180.13 131.39L180.13 206.39L115.17 243.89L50.22 206.39L50.22 131.39zM569.85 -18.61L634.8 18.89L634.8 93.89L569.85 131.39L504.9 93.89L504.9 18.89zM764.71 318.89L829.67 356.39L829.67 431.39L764.71 468.89L699.76 431.39L699.76 356.39zM959.57 -18.61L1024.53 18.89L1024.53 93.89L959.57 131.39L894.62 93.89L894.62 18.89zM1024.53 93.89L1089.48 131.39L1089.48 206.39L1024.53 243.89L959.57 206.39L959.57 131.39zM1154.43 543.89L1219.39 581.39L1219.39 656.39L1154.43 693.89L1089.48 656.39L1089.48 581.39zM1479.2 206.39L1544.16 243.89L1544.16 318.89L1479.2 356.39L1414.25 318.89L1414.25 243.89z" stroke="rgba(227, 125, 13, 1)" stroke-width="2"></path><path d="M107.67 93.89 a7.5 7.5 0 1 0 15 0 a7.5 7.5 0 1 0 -15 0zM172.63 131.39 a7.5 7.5 0 1 0 15 0 a7.5 7.5 0 1 0 -15 0zM172.63 206.39 a7.5 7.5 0 1 0 15 0 a7.5 7.5 0 1 0 -15 0zM107.67 243.89 a7.5 7.5 0 1 0 15 0 a7.5 7.5 0 1 0 -15 0zM42.72 206.39 a7.5 7.5 0 1 0 15 0 a7.5 7.5 0 1 0 -15 0zM42.72 131.39 a7.5 7.5 0 1 0 15 0 a7.5 7.5 0 1 0 -15 0zM562.35 -18.61 a7.5 7.5 0 1 0 15 0 a7.5 7.5 0 1 0 -15 0zM627.3 18.89 a7.5 7.5 0 1 0 15 0 a7.5 7.5 0 1 0 -15 0zM627.3 93.89 a7.5 7.5 0 1 0 15 0 a7.5 7.5 0 1 0 -15 0zM562.35 131.39 a7.5 7.5 0 1 0 15 0 a7.5 7.5 0 1 0 -15 0zM497.4 93.89 a7.5 7.5 0 1 0 15 0 a7.5 7.5 0 1 0 -15 0zM497.4 18.89 a7.5 7.5 0 1 0 15 0 a7.5 7.5 0 1 0 -15 0zM757.21 318.89 a7.5 7.5 0 1 0 15 0 a7.5 7.5 0 1 0 -15 0zM822.17 356.39 a7.5 7.5 0 1 0 15 0 a7.5 7.5 0 1 0 -15 0zM822.17 431.39 a7.5 7.5 0 1 0 15 0 a7.5 7.5 0 1 0 -15 0zM757.21 468.89 a7.5 7.5 0 1 0 15 0 a7.5 7.5 0 1 0 -15 0zM692.26 431.39 a7.5 7.5 0 1 0 15 0 a7.5 7.5 0 1 0 -15 0zM692.26 356.39 a7.5 7.5 0 1 0 15 0 a7.5 7.5 0 1 0 -15 0zM952.07 -18.61 a7.5 7.5 0 1 0 15 0 a7.5 7.5 0 1 0 -15 0zM1017.03 18.89 a7.5 7.5 0 1 0 15 0 a7.5 7.5 0 1 0 -15 0zM1017.03 93.89 a7.5 7.5 0 1 0 15 0 a7.5 7.5 0 1 0 -15 0zM952.07 131.39 a7.5 7.5 0 1 0 15 0 a7.5 7.5 0 1 0 -15 0zM887.12 93.89 a7.5 7.5 0 1 0 15 0 a7.5 7.5 0 1 0 -15 0zM887.12 18.89 a7.5 7.5 0 1 0 15 0 a7.5 7.5 0 1 0 -15 0zM1081.98 131.39 a7.5 7.5 0 1 0 15 0 a7.5 7.5 0 1 0 -15 0zM1081.98 206.39 a7.5 7.5 0 1 0 15 0 a7.5 7.5 0 1 0 -15 0zM1017.03 243.89 a7.5 7.5 0 1 0 15 0 a7.5 7.5 0 1 0 -15 0zM952.07 206.39 a7.5 7.5 0 1 0 15 0 a7.5 7.5 0 1 0 -15 0zM1146.93 543.89 a7.5 7.5 0 1 0 15 0 a7.5 7.5 0 1 0 -15 0zM1211.89 581.39 a7.5 7.5 0 1 0 15 0 a7.5 7.5 0 1 0 -15 0zM1211.89 656.39 a7.5 7.5 0 1 0 15 0 a7.5 7.5 0 1 0 -15 0zM1146.93 693.89 a7.5 7.5 0 1 0 15 0 a7.5 7.5 0 1 0 -15 0zM1081.98 656.39 a7.5 7.5 0 1 0 15 0 a7.5 7.5 0 1 0 -15 0zM1081.98 581.39 a7.5 7.5 0 1 0 15 0 a7.5 7.5 0 1 0 -15 0zM1471.7 206.39 a7.5 7.5 0 1 0 15 0 a7.5 7.5 0 1 0 -15 0zM1536.66 243.89 a7.5 7.5 0 1 0 15 0 a7.5 7.5 0 1 0 -15 0zM1536.66 318.89 a7.5 7.5 0 1 0 15 0 a7.5 7.5 0 1 0 -15 0zM1471.7 356.39 a7.5 7.5 0 1 0 15 0 a7.5 7.5 0 1 0 -15 0zM1406.75 318.89 a7.5 7.5 0 1 0 15 0 a7.5 7.5 0 1 0 -15 0zM1406.75 243.89 a7.5 7.5 0 1 0 15 0 a7.5 7.5 0 1 0 -15 0z" fill="rgba(227, 125, 13, 1)"></path><path d="M56.61 192.21L99.92 217.21L99.92 267.21L56.61 292.21L13.31 267.21L13.31 217.21zM13.31 267.21L56.61 292.21L56.61 342.21L13.31 367.21L-29.99 342.21L-29.99 292.21zM99.92 117.21L143.22 142.21L143.22 192.21L99.92 217.21L56.61 192.21L56.61 142.21zM273.13 267.21L316.43 292.21L316.43 342.21L273.13 367.21L229.82 342.21L229.82 292.21zM403.03 42.21L446.34 67.21L446.34 117.21L403.03 142.21L359.73 117.21L359.73 67.21zM359.73 117.21L403.03 142.21L403.03 192.21L359.73 217.21L316.43 192.21L316.43 142.21zM359.73 267.21L403.03 292.21L403.03 342.21L359.73 367.21L316.43 342.21L316.43 292.21zM576.24 42.21L619.54 67.21L619.54 117.21L576.24 142.21L532.94 117.21L532.94 67.21zM532.94 117.21L576.24 142.21L576.24 192.21L532.94 217.21L489.64 192.21L489.64 142.21zM532.94 267.21L576.24 292.21L576.24 342.21L532.94 367.21L489.64 342.21L489.64 292.21zM662.85 42.21L706.15 67.21L706.15 117.21L662.85 142.21L619.54 117.21L619.54 67.21zM662.85 192.21L706.15 217.21L706.15 267.21L662.85 292.21L619.54 267.21L619.54 217.21zM662.85 492.21L706.15 517.21L706.15 567.21L662.85 592.21L619.54 567.21L619.54 517.21zM706.15 -32.79L749.45 -7.79L749.45 42.21L706.15 67.21L662.85 42.21L662.85 -7.79zM706.15 267.21L749.45 292.21L749.45 342.21L706.15 367.21L662.85 342.21L662.85 292.21zM749.45 342.21L792.75 367.21L792.75 417.21L749.45 442.21L706.15 417.21L706.15 367.21zM879.36 -32.79L922.66 -7.79L922.66 42.21L879.36 67.21L836.06 42.21L836.06 -7.79zM879.36 117.21L922.66 142.21L922.66 192.21L879.36 217.21L836.06 192.21L836.06 142.21zM922.66 192.21L965.97 217.21L965.97 267.21L922.66 292.21L879.36 267.21L879.36 217.21zM879.36 267.21L922.66 292.21L922.66 342.21L879.36 367.21L836.06 342.21L836.06 292.21zM922.66 492.21L965.97 517.21L965.97 567.21L922.66 592.21L879.36 567.21L879.36 517.21zM1009.27 492.21L1052.57 517.21L1052.57 567.21L1009.27 592.21L965.97 567.21L965.97 517.21zM1052.57 267.21L1095.87 292.21L1095.87 342.21L1052.57 367.21L1009.27 342.21L1009.27 292.21zM1052.57 417.21L1095.87 442.21L1095.87 492.21L1052.57 517.21L1009.27 492.21L1009.27 442.21zM1095.87 492.21L1139.17 517.21L1139.17 567.21L1095.87 592.21L1052.57 567.21L1052.57 517.21zM1139.17 -32.79L1182.48 -7.79L1182.48 42.21L1139.17 67.21L1095.87 42.21L1095.87 -7.79zM1182.48 192.21L1225.78 217.21L1225.78 267.21L1182.48 292.21L1139.17 267.21L1139.17 217.21zM1269.08 192.21L1312.38 217.21L1312.38 267.21L1269.08 292.21L1225.78 267.21L1225.78 217.21zM1225.78 267.21L1269.08 292.21L1269.08 342.21L1225.78 367.21L1182.48 342.21L1182.48 292.21zM1269.08 342.21L1312.38 367.21L1312.38 417.21L1269.08 442.21L1225.78 417.21L1225.78 367.21zM1312.38 117.21L1355.69 142.21L1355.69 192.21L1312.38 217.21L1269.08 192.21L1269.08 142.21zM1312.38 417.21L1355.69 442.21L1355.69 492.21L1312.38 517.21L1269.08 492.21L1269.08 442.21z" stroke="rgba(249, 249, 249, 0.93)" stroke-width="2"></path></g><defs><mask id="SvgjsMask1003"><rect width="1440" height="560" fill="#ffffff"></rect></mask></defs></svg>