<svg xmlns="http://www.w3.org/2000/svg" version="1.1" xmlns:xlink="http://www.w3.org/1999/xlink" xmlns:svgjs="http://svgjs.com/svgjs" width="1440" height="560" preserveAspectRatio="none" viewBox="0 0 1440 560"><g mask="url(&quot;#SvgjsMask1014&quot;)" fill="none"><rect width="1440" height="560" x="0" y="0" fill="rgba(0, 0, 0, 1)"></rect><path d="M-38.99 409.85L-38.99 409.85" stroke="rgba(243, 242, 242, 1)" stroke-width="1.5"></path><path d="M-38.99 409.85L-90.93 508.05" stroke="rgba(243, 242, 242, 1)" stroke-width="1.5"></path><path d="M-38.99 409.85L77.44 388.29" stroke="rgba(243, 242, 242, 1)" stroke-width="1.5"></path><path d="M-38.99 409.85L78.5 551.24" stroke="rgba(243, 242, 242, 1)" stroke-width="1.5"></path><path d="M-90.93 508.05L-90.93 508.05" stroke="rgba(243, 242, 242, 1)" stroke-width="1.5"></path><path d="M-90.93 508.05L78.5 551.24" stroke="rgba(243, 242, 242, 1)" stroke-width="1.5"></path><path d="M-90.93 508.05L77.44 388.29" stroke="rgba(243, 242, 242, 1)" stroke-width="1.5"></path><path d="M-90.93 508.05L106.28 692.82" stroke="rgba(243, 242, 242, 1)" stroke-width="1.5"></path><path d="M77.44 388.29L77.44 388.29" stroke="rgba(243, 242, 242, 1)" stroke-width="1.5"></path><path d="M78.5 551.24L78.5 551.24" stroke="rgba(243, 242, 242, 1)" stroke-width="1.5"></path><path d="M78.5 551.24L106.28 692.82" stroke="rgba(243, 242, 242, 1)" stroke-width="1.5"></path><path d="M78.5 551.24L238.46 532.07" stroke="rgba(243, 242, 242, 1)" stroke-width="1.5"></path><path d="M78.5 551.24L77.44 388.29" stroke="rgba(243, 242, 242, 1)" stroke-width="1.5"></path><path d="M78.5 551.24L198.62 695.25" stroke="rgba(243, 242, 242, 1)" stroke-width="1.5"></path><path d="M106.28 692.82L106.28 692.82" stroke="rgba(243, 242, 242, 1)" stroke-width="1.5"></path><path d="M106.28 692.82L198.62 695.25" stroke="rgba(243, 242, 242, 1)" stroke-width="1.5"></path><path d="M106.28 692.82L238.46 532.07" stroke="rgba(243, 242, 242, 1)" stroke-width="1.5"></path><path d="M106.28 692.82L388.27 638.55" stroke="rgba(243, 242, 242, 1)" stroke-width="1.5"></path><path d="M106.28 692.82L368.21 557.22" stroke="rgba(243, 242, 242, 1)" stroke-width="1.5"></path><path d="M242.62 341.99L242.62 341.99" stroke="rgba(243, 242, 242, 1)" stroke-width="1.5"></path><path d="M242.62 341.99L400.23 388" stroke="rgba(243, 242, 242, 1)" stroke-width="1.5"></path><path d="M242.62 341.99L77.44 388.29" stroke="rgba(243, 242, 242, 1)" stroke-width="1.5"></path><path d="M242.62 341.99L238.46 532.07" stroke="rgba(243, 242, 242, 1)" stroke-width="1.5"></path><path d="M242.62 341.99L368.21 557.22" stroke="rgba(243, 242, 242, 1)" stroke-width="1.5"></path><path d="M242.62 341.99L78.5 551.24" stroke="rgba(243, 242, 242, 1)" stroke-width="1.5"></path><path d="M238.46 532.07L238.46 532.07" stroke="rgba(243, 242, 242, 1)" stroke-width="1.5"></path><path d="M238.46 532.07L368.21 557.22" stroke="rgba(243, 242, 242, 1)" stroke-width="1.5"></path><path d="M238.46 532.07L198.62 695.25" stroke="rgba(243, 242, 242, 1)" stroke-width="1.5"></path><path d="M198.62 695.25L198.62 695.25" stroke="rgba(243, 242, 242, 1)" stroke-width="1.5"></path><path d="M198.62 695.25L388.27 638.55" stroke="rgba(243, 242, 242, 1)" stroke-width="1.5"></path><path d="M400.23 388L400.23 388" stroke="rgba(243, 242, 242, 1)" stroke-width="1.5"></path><path d="M400.23 388L368.21 557.22" stroke="rgba(243, 242, 242, 1)" stroke-width="1.5"></path><path d="M400.23 388L238.46 532.07" stroke="rgba(243, 242, 242, 1)" stroke-width="1.5"></path><path d="M400.23 388L554.71 550.35" stroke="rgba(243, 242, 242, 1)" stroke-width="1.5"></path><path d="M400.23 388L388.27 638.55" stroke="rgba(243, 242, 242, 1)" stroke-width="1.5"></path><path d="M368.21 557.22L368.21 557.22" stroke="rgba(243, 242, 242, 1)" stroke-width="1.5"></path><path d="M368.21 557.22L388.27 638.55" stroke="rgba(243, 242, 242, 1)" stroke-width="1.5"></path><path d="M368.21 557.22L511.2 644.51" stroke="rgba(243, 242, 242, 1)" stroke-width="1.5"></path><path d="M388.27 638.55L388.27 638.55" stroke="rgba(243, 242, 242, 1)" stroke-width="1.5"></path><path d="M388.27 638.55L511.2 644.51" stroke="rgba(243, 242, 242, 1)" stroke-width="1.5"></path><path d="M388.27 638.55L238.46 532.07" stroke="rgba(243, 242, 242, 1)" stroke-width="1.5"></path><path d="M388.27 638.55L554.71 550.35" stroke="rgba(243, 242, 242, 1)" stroke-width="1.5"></path><path d="M554.71 550.35L554.71 550.35" stroke="rgba(243, 242, 242, 1)" stroke-width="1.5"></path><path d="M554.71 550.35L511.2 644.51" stroke="rgba(243, 242, 242, 1)" stroke-width="1.5"></path><path d="M554.71 550.35L368.21 557.22" stroke="rgba(243, 242, 242, 1)" stroke-width="1.5"></path><path d="M554.71 550.35L668.55 703.19" stroke="rgba(243, 242, 242, 1)" stroke-width="1.5"></path><path d="M511.2 644.51L511.2 644.51" stroke="rgba(243, 242, 242, 1)" stroke-width="1.5"></path><path d="M664.83 343.99L664.83 343.99" stroke="rgba(243, 242, 242, 1)" stroke-width="1.5"></path><path d="M664.83 343.99L810.45 404.18" stroke="rgba(243, 242, 242, 1)" stroke-width="1.5"></path><path d="M668.55 703.19L668.55 703.19" stroke="rgba(243, 242, 242, 1)" stroke-width="1.5"></path><path d="M668.55 703.19L511.2 644.51" stroke="rgba(243, 242, 242, 1)" stroke-width="1.5"></path><path d="M668.55 703.19L844.83 683.05" stroke="rgba(243, 242, 242, 1)" stroke-width="1.5"></path><path d="M668.55 703.19L806.67 498.04" stroke="rgba(243, 242, 242, 1)" stroke-width="1.5"></path><path d="M668.55 703.19L388.27 638.55" stroke="rgba(243, 242, 242, 1)" stroke-width="1.5"></path><path d="M840.31 198.36L840.31 198.36" stroke="rgba(243, 242, 242, 1)" stroke-width="1.5"></path><path d="M840.31 198.36L977.88 228.02" stroke="rgba(243, 242, 242, 1)" stroke-width="1.5"></path><path d="M840.31 198.36L988.1 82.44" stroke="rgba(243, 242, 242, 1)" stroke-width="1.5"></path><path d="M810.45 404.18L810.45 404.18" stroke="rgba(243, 242, 242, 1)" stroke-width="1.5"></path><path d="M810.45 404.18L806.67 498.04" stroke="rgba(243, 242, 242, 1)" stroke-width="1.5"></path><path d="M810.45 404.18L939.68 393.68" stroke="rgba(243, 242, 242, 1)" stroke-width="1.5"></path><path d="M806.67 498.04L806.67 498.04" stroke="rgba(243, 242, 242, 1)" stroke-width="1.5"></path><path d="M806.67 498.04L945.51 510.74" stroke="rgba(243, 242, 242, 1)" stroke-width="1.5"></path><path d="M806.67 498.04L939.68 393.68" stroke="rgba(243, 242, 242, 1)" stroke-width="1.5"></path><path d="M844.83 683.05L844.83 683.05" stroke="rgba(243, 242, 242, 1)" stroke-width="1.5"></path><path d="M844.83 683.05L987.86 712.39" stroke="rgba(243, 242, 242, 1)" stroke-width="1.5"></path><path d="M844.83 683.05L806.67 498.04" stroke="rgba(243, 242, 242, 1)" stroke-width="1.5"></path><path d="M844.83 683.05L945.51 510.74" stroke="rgba(243, 242, 242, 1)" stroke-width="1.5"></path><path d="M844.83 683.05L1095.11 653.1" stroke="rgba(243, 242, 242, 1)" stroke-width="1.5"></path><path d="M956.01 -57.31L956.01 -57.31" stroke="rgba(243, 242, 242, 1)" stroke-width="1.5"></path><path d="M956.01 -57.31L988.1 82.44" stroke="rgba(243, 242, 242, 1)" stroke-width="1.5"></path><path d="M956.01 -57.31L1089.54 48.19" stroke="rgba(243, 242, 242, 1)" stroke-width="1.5"></path><path d="M956.01 -57.31L1156.4 -56.97" stroke="rgba(243, 242, 242, 1)" stroke-width="1.5"></path><path d="M956.01 -57.31L840.31 198.36" stroke="rgba(243, 242, 242, 1)" stroke-width="1.5"></path><path d="M956.01 -57.31L977.88 228.02" stroke="rgba(243, 242, 242, 1)" stroke-width="1.5"></path><path d="M988.1 82.44L988.1 82.44" stroke="rgba(243, 242, 242, 1)" stroke-width="1.5"></path><path d="M988.1 82.44L1089.54 48.19" stroke="rgba(243, 242, 242, 1)" stroke-width="1.5"></path><path d="M988.1 82.44L977.88 228.02" stroke="rgba(243, 242, 242, 1)" stroke-width="1.5"></path><path d="M977.88 228.02L977.88 228.02" stroke="rgba(243, 242, 242, 1)" stroke-width="1.5"></path><path d="M977.88 228.02L1139.39 257.44" stroke="rgba(243, 242, 242, 1)" stroke-width="1.5"></path><path d="M939.68 393.68L939.68 393.68" stroke="rgba(243, 242, 242, 1)" stroke-width="1.5"></path><path d="M939.68 393.68L945.51 510.74" stroke="rgba(243, 242, 242, 1)" stroke-width="1.5"></path><path d="M945.51 510.74L945.51 510.74" stroke="rgba(243, 242, 242, 1)" stroke-width="1.5"></path><path d="M945.51 510.74L810.45 404.18" stroke="rgba(243, 242, 242, 1)" stroke-width="1.5"></path><path d="M945.51 510.74L1131.63 554.2" stroke="rgba(243, 242, 242, 1)" stroke-width="1.5"></path><path d="M987.86 712.39L987.86 712.39" stroke="rgba(243, 242, 242, 1)" stroke-width="1.5"></path><path d="M987.86 712.39L1095.11 653.1" stroke="rgba(243, 242, 242, 1)" stroke-width="1.5"></path><path d="M987.86 712.39L945.51 510.74" stroke="rgba(243, 242, 242, 1)" stroke-width="1.5"></path><path d="M987.86 712.39L1131.63 554.2" stroke="rgba(243, 242, 242, 1)" stroke-width="1.5"></path><path d="M987.86 712.39L806.67 498.04" stroke="rgba(243, 242, 242, 1)" stroke-width="1.5"></path><path d="M1156.4 -56.97L1156.4 -56.97" stroke="rgba(243, 242, 242, 1)" stroke-width="1.5"></path><path d="M1156.4 -56.97L1251.9 -95.66" stroke="rgba(243, 242, 242, 1)" stroke-width="1.5"></path><path d="M1156.4 -56.97L1089.54 48.19" stroke="rgba(243, 242, 242, 1)" stroke-width="1.5"></path><path d="M1089.54 48.19L1089.54 48.19" stroke="rgba(243, 242, 242, 1)" stroke-width="1.5"></path><path d="M1139.39 257.44L1139.39 257.44" stroke="rgba(243, 242, 242, 1)" stroke-width="1.5"></path><path d="M1139.39 257.44L1244.25 238.22" stroke="rgba(243, 242, 242, 1)" stroke-width="1.5"></path><path d="M1139.39 257.44L1159.73 389.83" stroke="rgba(243, 242, 242, 1)" stroke-width="1.5"></path><path d="M1159.73 389.83L1159.73 389.83" stroke="rgba(243, 242, 242, 1)" stroke-width="1.5"></path><path d="M1159.73 389.83L1263.25 389.25" stroke="rgba(243, 242, 242, 1)" stroke-width="1.5"></path><path d="M1131.63 554.2L1131.63 554.2" stroke="rgba(243, 242, 242, 1)" stroke-width="1.5"></path><path d="M1131.63 554.2L1095.11 653.1" stroke="rgba(243, 242, 242, 1)" stroke-width="1.5"></path><path d="M1095.11 653.1L1095.11 653.1" stroke="rgba(243, 242, 242, 1)" stroke-width="1.5"></path><path d="M1095.11 653.1L1241.62 540.65" stroke="rgba(243, 242, 242, 1)" stroke-width="1.5"></path><path d="M1095.11 653.1L1278.44 696.51" stroke="rgba(243, 242, 242, 1)" stroke-width="1.5"></path><path d="M1095.11 653.1L945.51 510.74" stroke="rgba(243, 242, 242, 1)" stroke-width="1.5"></path><path d="M1251.9 -95.66L1251.9 -95.66" stroke="rgba(243, 242, 242, 1)" stroke-width="1.5"></path><path d="M1251.9 -95.66L1407.84 -79.66" stroke="rgba(243, 242, 242, 1)" stroke-width="1.5"></path><path d="M1294.98 61.59L1294.98 61.59" stroke="rgba(243, 242, 242, 1)" stroke-width="1.5"></path><path d="M1294.98 61.59L1423.24 103.99" stroke="rgba(243, 242, 242, 1)" stroke-width="1.5"></path><path d="M1294.98 61.59L1251.9 -95.66" stroke="rgba(243, 242, 242, 1)" stroke-width="1.5"></path><path d="M1294.98 61.59L1407.84 -79.66" stroke="rgba(243, 242, 242, 1)" stroke-width="1.5"></path><path d="M1244.25 238.22L1244.25 238.22" stroke="rgba(243, 242, 242, 1)" stroke-width="1.5"></path><path d="M1244.25 238.22L1263.25 389.25" stroke="rgba(243, 242, 242, 1)" stroke-width="1.5"></path><path d="M1263.25 389.25L1263.25 389.25" stroke="rgba(243, 242, 242, 1)" stroke-width="1.5"></path><path d="M1263.25 389.25L1241.62 540.65" stroke="rgba(243, 242, 242, 1)" stroke-width="1.5"></path><path d="M1263.25 389.25L1432.06 411.68" stroke="rgba(243, 242, 242, 1)" stroke-width="1.5"></path><path d="M1263.25 389.25L1139.39 257.44" stroke="rgba(243, 242, 242, 1)" stroke-width="1.5"></path><path d="M1263.25 389.25L1131.63 554.2" stroke="rgba(243, 242, 242, 1)" stroke-width="1.5"></path><path d="M1241.62 540.65L1241.62 540.65" stroke="rgba(243, 242, 242, 1)" stroke-width="1.5"></path><path d="M1241.62 540.65L1131.63 554.2" stroke="rgba(243, 242, 242, 1)" stroke-width="1.5"></path><path d="M1241.62 540.65L1278.44 696.51" stroke="rgba(243, 242, 242, 1)" stroke-width="1.5"></path><path d="M1241.62 540.65L1159.73 389.83" stroke="rgba(243, 242, 242, 1)" stroke-width="1.5"></path><path d="M1241.62 540.65L1424.22 663.58" stroke="rgba(243, 242, 242, 1)" stroke-width="1.5"></path><path d="M1278.44 696.51L1278.44 696.51" stroke="rgba(243, 242, 242, 1)" stroke-width="1.5"></path><path d="M1278.44 696.51L1424.22 663.58" stroke="rgba(243, 242, 242, 1)" stroke-width="1.5"></path><path d="M1278.44 696.51L1131.63 554.2" stroke="rgba(243, 242, 242, 1)" stroke-width="1.5"></path><path d="M1278.44 696.51L987.86 712.39" stroke="rgba(243, 242, 242, 1)" stroke-width="1.5"></path><path d="M1278.44 696.51L1263.25 389.25" stroke="rgba(243, 242, 242, 1)" stroke-width="1.5"></path><path d="M1407.84 -79.66L1407.84 -79.66" stroke="rgba(243, 242, 242, 1)" stroke-width="1.5"></path><path d="M1407.84 -79.66L1583.49 -64.04" stroke="rgba(243, 242, 242, 1)" stroke-width="1.5"></path><path d="M1423.24 103.99L1423.24 103.99" stroke="rgba(243, 242, 242, 1)" stroke-width="1.5"></path><path d="M1423.24 103.99L1444.12 249.58" stroke="rgba(243, 242, 242, 1)" stroke-width="1.5"></path><path d="M1423.24 103.99L1560.44 42.45" stroke="rgba(243, 242, 242, 1)" stroke-width="1.5"></path><path d="M1423.24 103.99L1407.84 -79.66" stroke="rgba(243, 242, 242, 1)" stroke-width="1.5"></path><path d="M1423.24 103.99L1601.79 199.71" stroke="rgba(243, 242, 242, 1)" stroke-width="1.5"></path><path d="M1444.12 249.58L1444.12 249.58" stroke="rgba(243, 242, 242, 1)" stroke-width="1.5"></path><path d="M1444.12 249.58L1432.06 411.68" stroke="rgba(243, 242, 242, 1)" stroke-width="1.5"></path><path d="M1444.12 249.58L1548.57 374.99" stroke="rgba(243, 242, 242, 1)" stroke-width="1.5"></path><path d="M1444.12 249.58L1601.79 199.71" stroke="rgba(243, 242, 242, 1)" stroke-width="1.5"></path><path d="M1444.12 249.58L1244.25 238.22" stroke="rgba(243, 242, 242, 1)" stroke-width="1.5"></path><path d="M1432.06 411.68L1432.06 411.68" stroke="rgba(243, 242, 242, 1)" stroke-width="1.5"></path><path d="M1432.06 411.68L1548.57 374.99" stroke="rgba(243, 242, 242, 1)" stroke-width="1.5"></path><path d="M1432.06 411.68L1543.74 529.29" stroke="rgba(243, 242, 242, 1)" stroke-width="1.5"></path><path d="M1424.22 663.58L1424.22 663.58" stroke="rgba(243, 242, 242, 1)" stroke-width="1.5"></path><path d="M1424.22 663.58L1543.74 529.29" stroke="rgba(243, 242, 242, 1)" stroke-width="1.5"></path><path d="M1424.22 663.58L1603.3 706.04" stroke="rgba(243, 242, 242, 1)" stroke-width="1.5"></path><path d="M1583.49 -64.04L1583.49 -64.04" stroke="rgba(243, 242, 242, 1)" stroke-width="1.5"></path><path d="M1583.49 -64.04L1560.44 42.45" stroke="rgba(243, 242, 242, 1)" stroke-width="1.5"></path><path d="M1583.49 -64.04L1423.24 103.99" stroke="rgba(243, 242, 242, 1)" stroke-width="1.5"></path><path d="M1583.49 -64.04L1601.79 199.71" stroke="rgba(243, 242, 242, 1)" stroke-width="1.5"></path><path d="M1583.49 -64.04L1294.98 61.59" stroke="rgba(243, 242, 242, 1)" stroke-width="1.5"></path><path d="M1560.44 42.45L1560.44 42.45" stroke="rgba(243, 242, 242, 1)" stroke-width="1.5"></path><path d="M1560.44 42.45L1601.79 199.71" stroke="rgba(243, 242, 242, 1)" stroke-width="1.5"></path><path d="M1560.44 42.45L1407.84 -79.66" stroke="rgba(243, 242, 242, 1)" stroke-width="1.5"></path><path d="M1560.44 42.45L1444.12 249.58" stroke="rgba(243, 242, 242, 1)" stroke-width="1.5"></path><path d="M1601.79 199.71L1601.79 199.71" stroke="rgba(243, 242, 242, 1)" stroke-width="1.5"></path><path d="M1601.79 199.71L1548.57 374.99" stroke="rgba(243, 242, 242, 1)" stroke-width="1.5"></path><path d="M1548.57 374.99L1548.57 374.99" stroke="rgba(243, 242, 242, 1)" stroke-width="1.5"></path><path d="M1548.57 374.99L1543.74 529.29" stroke="rgba(243, 242, 242, 1)" stroke-width="1.5"></path><path d="M1543.74 529.29L1543.74 529.29" stroke="rgba(243, 242, 242, 1)" stroke-width="1.5"></path><path d="M1603.3 706.04L1603.3 706.04" stroke="rgba(243, 242, 242, 1)" stroke-width="1.5"></path><path d="M1603.3 706.04L1543.74 529.29" stroke="rgba(243, 242, 242, 1)" stroke-width="1.5"></path><circle r="5" cx="-38.99" cy="409.85" fill="rgba(243, 242, 242, 1)"></circle><circle r="5" cx="-90.93" cy="508.05" fill="rgba(243, 242, 242, 1)"></circle><circle r="5" cx="77.44" cy="388.29" fill="rgba(243, 242, 242, 1)"></circle><circle r="5" cx="78.5" cy="551.24" fill="rgba(243, 242, 242, 1)"></circle><circle r="5" cx="106.28" cy="692.82" fill="rgba(243, 242, 242, 1)"></circle><circle r="5" cx="242.62" cy="341.99" fill="rgba(243, 242, 242, 1)"></circle><circle r="5" cx="238.46" cy="532.07" fill="rgba(243, 242, 242, 1)"></circle><circle r="5" cx="198.62" cy="695.25" fill="rgba(243, 242, 242, 1)"></circle><circle r="5" cx="400.23" cy="388" fill="rgba(243, 242, 242, 1)"></circle><circle r="5" cx="368.21" cy="557.22" fill="rgba(243, 242, 242, 1)"></circle><circle r="5" cx="388.27" cy="638.55" fill="rgba(243, 242, 242, 1)"></circle><circle r="5" cx="554.71" cy="550.35" fill="rgba(243, 242, 242, 1)"></circle><circle r="5" cx="511.2" cy="644.51" fill="rgba(243, 242, 242, 1)"></circle><circle r="5" cx="664.83" cy="343.99" fill="rgba(243, 242, 242, 1)"></circle><circle r="5" cx="668.55" cy="703.19" fill="rgba(243, 242, 242, 1)"></circle><circle r="5" cx="840.31" cy="198.36" fill="rgba(243, 242, 242, 1)"></circle><circle r="5" cx="810.45" cy="404.18" fill="rgba(243, 242, 242, 1)"></circle><circle r="5" cx="806.67" cy="498.04" fill="rgba(243, 242, 242, 1)"></circle><circle r="5" cx="844.83" cy="683.05" fill="rgba(243, 242, 242, 1)"></circle><circle r="5" cx="956.01" cy="-57.31" fill="rgba(243, 242, 242, 1)"></circle><circle r="5" cx="988.1" cy="82.44" fill="rgba(243, 242, 242, 1)"></circle><circle r="5" cx="977.88" cy="228.02" fill="rgba(243, 242, 242, 1)"></circle><circle r="5" cx="939.68" cy="393.68" fill="rgba(243, 242, 242, 1)"></circle><circle r="5" cx="945.51" cy="510.74" fill="rgba(243, 242, 242, 1)"></circle><circle r="5" cx="987.86" cy="712.39" fill="rgba(243, 242, 242, 1)"></circle><circle r="5" cx="1156.4" cy="-56.97" fill="rgba(243, 242, 242, 1)"></circle><circle r="5" cx="1089.54" cy="48.19" fill="rgba(243, 242, 242, 1)"></circle><circle r="5" cx="1139.39" cy="257.44" fill="rgba(243, 242, 242, 1)"></circle><circle r="5" cx="1159.73" cy="389.83" fill="rgba(243, 242, 242, 1)"></circle><circle r="5" cx="1131.63" cy="554.2" fill="rgba(243, 242, 242, 1)"></circle><circle r="5" cx="1095.11" cy="653.1" fill="rgba(243, 242, 242, 1)"></circle><circle r="5" cx="1251.9" cy="-95.66" fill="rgba(243, 242, 242, 1)"></circle><circle r="5" cx="1294.98" cy="61.59" fill="rgba(243, 242, 242, 1)"></circle><circle r="5" cx="1244.25" cy="238.22" fill="rgba(243, 242, 242, 1)"></circle><circle r="5" cx="1263.25" cy="389.25" fill="rgba(243, 242, 242, 1)"></circle><circle r="5" cx="1241.62" cy="540.65" fill="rgba(243, 242, 242, 1)"></circle><circle r="5" cx="1278.44" cy="696.51" fill="rgba(243, 242, 242, 1)"></circle><circle r="5" cx="1407.84" cy="-79.66" fill="rgba(243, 242, 242, 1)"></circle><circle r="5" cx="1423.24" cy="103.99" fill="rgba(243, 242, 242, 1)"></circle><circle r="5" cx="1444.12" cy="249.58" fill="rgba(243, 242, 242, 1)"></circle><circle r="5" cx="1432.06" cy="411.68" fill="rgba(243, 242, 242, 1)"></circle><circle r="5" cx="1424.22" cy="663.58" fill="rgba(243, 242, 242, 1)"></circle><circle r="5" cx="1583.49" cy="-64.04" fill="rgba(243, 242, 242, 1)"></circle><circle r="5" cx="1560.44" cy="42.45" fill="rgba(243, 242, 242, 1)"></circle><circle r="5" cx="1601.79" cy="199.71" fill="rgba(243, 242, 242, 1)"></circle><circle r="5" cx="1548.57" cy="374.99" fill="rgba(243, 242, 242, 1)"></circle><circle r="5" cx="1543.74" cy="529.29" fill="rgba(243, 242, 242, 1)"></circle><circle r="5" cx="1603.3" cy="706.04" fill="rgba(243, 242, 242, 1)"></circle><path d="M1009.21 402.11L1009.21 402.11" stroke="hsl(34.30000000000001, 97.4%, 58.1%)" stroke-width="1.5"></path><path d="M1009.21 402.11L992.94 500.62" stroke="hsl(34.30000000000001, 97.4%, 58.1%)" stroke-width="1.5"></path><path d="M1009.21 402.11L1121.73 349.74" stroke="hsl(34.30000000000001, 97.4%, 58.1%)" stroke-width="1.5"></path><path d="M1009.21 402.11L832.93 402.57" stroke="hsl(34.30000000000001, 97.4%, 58.1%)" stroke-width="1.5"></path><path d="M1009.21 402.11L1102.46 252.09" stroke="hsl(34.30000000000001, 97.4%, 58.1%)" stroke-width="1.5"></path><path d="M992.94 500.62L992.94 500.62" stroke="hsl(34.30000000000001, 97.4%, 58.1%)" stroke-width="1.5"></path><path d="M992.94 500.62L838.1 500.94" stroke="hsl(34.30000000000001, 97.4%, 58.1%)" stroke-width="1.5"></path><path d="M992.94 500.62L1009.47 659.25" stroke="hsl(34.30000000000001, 97.4%, 58.1%)" stroke-width="1.5"></path><path d="M992.94 500.62L1158.59 554.06" stroke="hsl(34.30000000000001, 97.4%, 58.1%)" stroke-width="1.5"></path><path d="M1102.46 252.09L1102.46 252.09" stroke="hsl(34.30000000000001, 97.4%, 58.1%)" stroke-width="1.5"></path><path d="M1102.46 252.09L1121.73 349.74" stroke="hsl(34.30000000000001, 97.4%, 58.1%)" stroke-width="1.5"></path><path d="M1102.46 252.09L1129.13 102.07" stroke="hsl(34.30000000000001, 97.4%, 58.1%)" stroke-width="1.5"></path><path d="M1102.46 252.09L1267.42 261.85" stroke="hsl(34.30000000000001, 97.4%, 58.1%)" stroke-width="1.5"></path><path d="M1102.46 252.09L1280.61 66.64" stroke="hsl(34.30000000000001, 97.4%, 58.1%)" stroke-width="1.5"></path><path d="M1253.44 -64.53L1253.44 -64.53" stroke="hsl(34.30000000000001, 97.4%, 58.1%)" stroke-width="1.5"></path><path d="M1253.44 -64.53L1159.46 -79.29" stroke="hsl(34.30000000000001, 97.4%, 58.1%)" stroke-width="1.5"></path><path d="M1253.44 -64.53L1280.61 66.64" stroke="hsl(34.30000000000001, 97.4%, 58.1%)" stroke-width="1.5"></path><path d="M1253.44 -64.53L1395.72 -49" stroke="hsl(34.30000000000001, 97.4%, 58.1%)" stroke-width="1.5"></path><path d="M1416.76 545.01L1416.76 545.01" stroke="hsl(34.30000000000001, 97.4%, 58.1%)" stroke-width="1.5"></path><path d="M1416.76 545.01L1447.51 654.86" stroke="hsl(34.30000000000001, 97.4%, 58.1%)" stroke-width="1.5"></path><path d="M1416.76 545.01L1284.22 529.49" stroke="hsl(34.30000000000001, 97.4%, 58.1%)" stroke-width="1.5"></path><path d="M1416.76 545.01L1598.66 545.01" stroke="hsl(34.30000000000001, 97.4%, 58.1%)" stroke-width="1.5"></path><path d="M1416.76 545.01L1306.57 696.73" stroke="hsl(34.30000000000001, 97.4%, 58.1%)" stroke-width="1.5"></path><path d="M1416.76 545.01L1455.64 358.32" stroke="hsl(34.30000000000001, 97.4%, 58.1%)" stroke-width="1.5"></path><path d="M1416.76 545.01L1592.02 645.68" stroke="hsl(34.30000000000001, 97.4%, 58.1%)" stroke-width="1.5"></path><path d="M1598.66 545.01L1598.66 545.01" stroke="hsl(34.30000000000001, 97.4%, 58.1%)" stroke-width="1.5"></path><path d="M1598.66 545.01L1592.02 645.68" stroke="hsl(34.30000000000001, 97.4%, 58.1%)" stroke-width="1.5"></path><path d="M1598.66 545.01L1608.67 401.46" stroke="hsl(34.30000000000001, 97.4%, 58.1%)" stroke-width="1.5"></path><path d="M-91.09 494.31L-91.09 494.31" stroke="hsl(34.30000000000001, 97.4%, 58.1%)" stroke-width="1.5"></path><path d="M-91.09 494.31L50.64 533.52" stroke="hsl(34.30000000000001, 97.4%, 58.1%)" stroke-width="1.5"></path><path d="M-91.09 494.31L-103.48 710.42" stroke="hsl(34.30000000000001, 97.4%, 58.1%)" stroke-width="1.5"></path><path d="M-91.09 494.31L84.5 646.84" stroke="hsl(34.30000000000001, 97.4%, 58.1%)" stroke-width="1.5"></path><path d="M-91.09 494.31L220.79 487.68" stroke="hsl(34.30000000000001, 97.4%, 58.1%)" stroke-width="1.5"></path><path d="M-91.09 494.31L205.28 701.08" stroke="hsl(34.30000000000001, 97.4%, 58.1%)" stroke-width="1.5"></path><path d="M-91.09 494.31L394.1 512.71" stroke="hsl(34.30000000000001, 97.4%, 58.1%)" stroke-width="1.5"></path><path d="M-103.48 710.42L-103.48 710.42" stroke="hsl(34.30000000000001, 97.4%, 58.1%)" stroke-width="1.5"></path><path d="M-103.48 710.42L84.5 646.84" stroke="hsl(34.30000000000001, 97.4%, 58.1%)" stroke-width="1.5"></path><path d="M-103.48 710.42L50.64 533.52" stroke="hsl(34.30000000000001, 97.4%, 58.1%)" stroke-width="1.5"></path><path d="M-103.48 710.42L205.28 701.08" stroke="hsl(34.30000000000001, 97.4%, 58.1%)" stroke-width="1.5"></path><path d="M50.64 533.52L50.64 533.52" stroke="hsl(34.30000000000001, 97.4%, 58.1%)" stroke-width="1.5"></path><path d="M50.64 533.52L84.5 646.84" stroke="hsl(34.30000000000001, 97.4%, 58.1%)" stroke-width="1.5"></path><path d="M50.64 533.52L220.79 487.68" stroke="hsl(34.30000000000001, 97.4%, 58.1%)" stroke-width="1.5"></path><path d="M84.5 646.84L84.5 646.84" stroke="hsl(34.30000000000001, 97.4%, 58.1%)" stroke-width="1.5"></path><path d="M84.5 646.84L205.28 701.08" stroke="hsl(34.30000000000001, 97.4%, 58.1%)" stroke-width="1.5"></path><path d="M84.5 646.84L220.79 487.68" stroke="hsl(34.30000000000001, 97.4%, 58.1%)" stroke-width="1.5"></path><path d="M220.79 487.68L220.79 487.68" stroke="hsl(34.30000000000001, 97.4%, 58.1%)" stroke-width="1.5"></path><path d="M220.79 487.68L394.1 512.71" stroke="hsl(34.30000000000001, 97.4%, 58.1%)" stroke-width="1.5"></path><path d="M205.28 701.08L205.28 701.08" stroke="hsl(34.30000000000001, 97.4%, 58.1%)" stroke-width="1.5"></path><path d="M205.28 701.08L220.79 487.68" stroke="hsl(34.30000000000001, 97.4%, 58.1%)" stroke-width="1.5"></path><path d="M205.28 701.08L50.64 533.52" stroke="hsl(34.30000000000001, 97.4%, 58.1%)" stroke-width="1.5"></path><path d="M205.28 701.08L394.1 512.71" stroke="hsl(34.30000000000001, 97.4%, 58.1%)" stroke-width="1.5"></path><path d="M394.1 512.71L394.1 512.71" stroke="hsl(34.30000000000001, 97.4%, 58.1%)" stroke-width="1.5"></path><path d="M394.1 512.71L549.91 523.89" stroke="hsl(34.30000000000001, 97.4%, 58.1%)" stroke-width="1.5"></path><path d="M394.1 512.71L527.02 637.65" stroke="hsl(34.30000000000001, 97.4%, 58.1%)" stroke-width="1.5"></path><path d="M394.1 512.71L549.38 402.25" stroke="hsl(34.30000000000001, 97.4%, 58.1%)" stroke-width="1.5"></path><path d="M394.1 512.71L649.06 559.84" stroke="hsl(34.30000000000001, 97.4%, 58.1%)" stroke-width="1.5"></path><path d="M549.38 402.25L549.38 402.25" stroke="hsl(34.30000000000001, 97.4%, 58.1%)" stroke-width="1.5"></path><path d="M549.38 402.25L549.91 523.89" stroke="hsl(34.30000000000001, 97.4%, 58.1%)" stroke-width="1.5"></path><path d="M549.38 402.25L649.06 559.84" stroke="hsl(34.30000000000001, 97.4%, 58.1%)" stroke-width="1.5"></path><path d="M549.38 402.25L527.02 637.65" stroke="hsl(34.30000000000001, 97.4%, 58.1%)" stroke-width="1.5"></path><path d="M549.91 523.89L549.91 523.89" stroke="hsl(34.30000000000001, 97.4%, 58.1%)" stroke-width="1.5"></path><path d="M549.91 523.89L649.06 559.84" stroke="hsl(34.30000000000001, 97.4%, 58.1%)" stroke-width="1.5"></path><path d="M549.91 523.89L527.02 637.65" stroke="hsl(34.30000000000001, 97.4%, 58.1%)" stroke-width="1.5"></path><path d="M549.91 523.89L669.7 687.88" stroke="hsl(34.30000000000001, 97.4%, 58.1%)" stroke-width="1.5"></path><path d="M527.02 637.65L527.02 637.65" stroke="hsl(34.30000000000001, 97.4%, 58.1%)" stroke-width="1.5"></path><path d="M527.02 637.65L649.06 559.84" stroke="hsl(34.30000000000001, 97.4%, 58.1%)" stroke-width="1.5"></path><path d="M527.02 637.65L669.7 687.88" stroke="hsl(34.30000000000001, 97.4%, 58.1%)" stroke-width="1.5"></path><path d="M649.06 559.84L649.06 559.84" stroke="hsl(34.30000000000001, 97.4%, 58.1%)" stroke-width="1.5"></path><path d="M649.06 559.84L669.7 687.88" stroke="hsl(34.30000000000001, 97.4%, 58.1%)" stroke-width="1.5"></path><path d="M669.7 687.88L669.7 687.88" stroke="hsl(34.30000000000001, 97.4%, 58.1%)" stroke-width="1.5"></path><path d="M669.7 687.88L856.87 652.79" stroke="hsl(34.30000000000001, 97.4%, 58.1%)" stroke-width="1.5"></path><path d="M669.7 687.88L838.1 500.94" stroke="hsl(34.30000000000001, 97.4%, 58.1%)" stroke-width="1.5"></path><path d="M832.93 402.57L832.93 402.57" stroke="hsl(34.30000000000001, 97.4%, 58.1%)" stroke-width="1.5"></path><path d="M832.93 402.57L838.1 500.94" stroke="hsl(34.30000000000001, 97.4%, 58.1%)" stroke-width="1.5"></path><path d="M838.1 500.94L838.1 500.94" stroke="hsl(34.30000000000001, 97.4%, 58.1%)" stroke-width="1.5"></path><path d="M838.1 500.94L856.87 652.79" stroke="hsl(34.30000000000001, 97.4%, 58.1%)" stroke-width="1.5"></path><path d="M838.1 500.94L1009.21 402.11" stroke="hsl(34.30000000000001, 97.4%, 58.1%)" stroke-width="1.5"></path><path d="M856.87 652.79L856.87 652.79" stroke="hsl(34.30000000000001, 97.4%, 58.1%)" stroke-width="1.5"></path><path d="M856.87 652.79L1009.47 659.25" stroke="hsl(34.30000000000001, 97.4%, 58.1%)" stroke-width="1.5"></path><path d="M856.87 652.79L992.94 500.62" stroke="hsl(34.30000000000001, 97.4%, 58.1%)" stroke-width="1.5"></path><path d="M1009.47 659.25L1009.47 659.25" stroke="hsl(34.30000000000001, 97.4%, 58.1%)" stroke-width="1.5"></path><path d="M1009.47 659.25L1101.83 695.47" stroke="hsl(34.30000000000001, 97.4%, 58.1%)" stroke-width="1.5"></path><path d="M1009.47 659.25L1158.59 554.06" stroke="hsl(34.30000000000001, 97.4%, 58.1%)" stroke-width="1.5"></path><path d="M1159.46 -79.29L1159.46 -79.29" stroke="hsl(34.30000000000001, 97.4%, 58.1%)" stroke-width="1.5"></path><path d="M1159.46 -79.29L1129.13 102.07" stroke="hsl(34.30000000000001, 97.4%, 58.1%)" stroke-width="1.5"></path><path d="M1129.13 102.07L1129.13 102.07" stroke="hsl(34.30000000000001, 97.4%, 58.1%)" stroke-width="1.5"></path><path d="M1129.13 102.07L1280.61 66.64" stroke="hsl(34.30000000000001, 97.4%, 58.1%)" stroke-width="1.5"></path><path d="M1129.13 102.07L1253.44 -64.53" stroke="hsl(34.30000000000001, 97.4%, 58.1%)" stroke-width="1.5"></path><path d="M1129.13 102.07L1267.42 261.85" stroke="hsl(34.30000000000001, 97.4%, 58.1%)" stroke-width="1.5"></path><path d="M1129.13 102.07L1121.73 349.74" stroke="hsl(34.30000000000001, 97.4%, 58.1%)" stroke-width="1.5"></path><path d="M1121.73 349.74L1121.73 349.74" stroke="hsl(34.30000000000001, 97.4%, 58.1%)" stroke-width="1.5"></path><path d="M1121.73 349.74L1267.42 261.85" stroke="hsl(34.30000000000001, 97.4%, 58.1%)" stroke-width="1.5"></path><path d="M1121.73 349.74L992.94 500.62" stroke="hsl(34.30000000000001, 97.4%, 58.1%)" stroke-width="1.5"></path><path d="M1121.73 349.74L1158.59 554.06" stroke="hsl(34.30000000000001, 97.4%, 58.1%)" stroke-width="1.5"></path><path d="M1121.73 349.74L1284.22 529.49" stroke="hsl(34.30000000000001, 97.4%, 58.1%)" stroke-width="1.5"></path><path d="M1158.59 554.06L1158.59 554.06" stroke="hsl(34.30000000000001, 97.4%, 58.1%)" stroke-width="1.5"></path><path d="M1158.59 554.06L1284.22 529.49" stroke="hsl(34.30000000000001, 97.4%, 58.1%)" stroke-width="1.5"></path><path d="M1158.59 554.06L1101.83 695.47" stroke="hsl(34.30000000000001, 97.4%, 58.1%)" stroke-width="1.5"></path><path d="M1158.59 554.06L1306.57 696.73" stroke="hsl(34.30000000000001, 97.4%, 58.1%)" stroke-width="1.5"></path><path d="M1101.83 695.47L1101.83 695.47" stroke="hsl(34.30000000000001, 97.4%, 58.1%)" stroke-width="1.5"></path><path d="M1101.83 695.47L1306.57 696.73" stroke="hsl(34.30000000000001, 97.4%, 58.1%)" stroke-width="1.5"></path><path d="M1280.61 66.64L1280.61 66.64" stroke="hsl(34.30000000000001, 97.4%, 58.1%)" stroke-width="1.5"></path><path d="M1280.61 66.64L1399.9 91.94" stroke="hsl(34.30000000000001, 97.4%, 58.1%)" stroke-width="1.5"></path><path d="M1267.42 261.85L1267.42 261.85" stroke="hsl(34.30000000000001, 97.4%, 58.1%)" stroke-width="1.5"></path><path d="M1267.42 261.85L1280.61 66.64" stroke="hsl(34.30000000000001, 97.4%, 58.1%)" stroke-width="1.5"></path><path d="M1267.42 261.85L1455.64 358.32" stroke="hsl(34.30000000000001, 97.4%, 58.1%)" stroke-width="1.5"></path><path d="M1267.42 261.85L1399.9 91.94" stroke="hsl(34.30000000000001, 97.4%, 58.1%)" stroke-width="1.5"></path><path d="M1284.22 529.49L1284.22 529.49" stroke="hsl(34.30000000000001, 97.4%, 58.1%)" stroke-width="1.5"></path><path d="M1284.22 529.49L1306.57 696.73" stroke="hsl(34.30000000000001, 97.4%, 58.1%)" stroke-width="1.5"></path><path d="M1306.57 696.73L1306.57 696.73" stroke="hsl(34.30000000000001, 97.4%, 58.1%)" stroke-width="1.5"></path><path d="M1306.57 696.73L1447.51 654.86" stroke="hsl(34.30000000000001, 97.4%, 58.1%)" stroke-width="1.5"></path><path d="M1306.57 696.73L1592.02 645.68" stroke="hsl(34.30000000000001, 97.4%, 58.1%)" stroke-width="1.5"></path><path d="M1395.72 -49L1395.72 -49" stroke="hsl(34.30000000000001, 97.4%, 58.1%)" stroke-width="1.5"></path><path d="M1395.72 -49L1399.9 91.94" stroke="hsl(34.30000000000001, 97.4%, 58.1%)" stroke-width="1.5"></path><path d="M1395.72 -49L1280.61 66.64" stroke="hsl(34.30000000000001, 97.4%, 58.1%)" stroke-width="1.5"></path><path d="M1395.72 -49L1571.7 -105.51" stroke="hsl(34.30000000000001, 97.4%, 58.1%)" stroke-width="1.5"></path><path d="M1395.72 -49L1159.46 -79.29" stroke="hsl(34.30000000000001, 97.4%, 58.1%)" stroke-width="1.5"></path><path d="M1395.72 -49L1609.99 100.09" stroke="hsl(34.30000000000001, 97.4%, 58.1%)" stroke-width="1.5"></path><path d="M1399.9 91.94L1399.9 91.94" stroke="hsl(34.30000000000001, 97.4%, 58.1%)" stroke-width="1.5"></path><path d="M1399.9 91.94L1609.99 100.09" stroke="hsl(34.30000000000001, 97.4%, 58.1%)" stroke-width="1.5"></path><path d="M1399.9 91.94L1253.44 -64.53" stroke="hsl(34.30000000000001, 97.4%, 58.1%)" stroke-width="1.5"></path><path d="M1455.64 358.32L1455.64 358.32" stroke="hsl(34.30000000000001, 97.4%, 58.1%)" stroke-width="1.5"></path><path d="M1455.64 358.32L1558.4 260.22" stroke="hsl(34.30000000000001, 97.4%, 58.1%)" stroke-width="1.5"></path><path d="M1455.64 358.32L1608.67 401.46" stroke="hsl(34.30000000000001, 97.4%, 58.1%)" stroke-width="1.5"></path><path d="M1455.64 358.32L1598.66 545.01" stroke="hsl(34.30000000000001, 97.4%, 58.1%)" stroke-width="1.5"></path><path d="M1455.64 358.32L1284.22 529.49" stroke="hsl(34.30000000000001, 97.4%, 58.1%)" stroke-width="1.5"></path><path d="M1447.51 654.86L1447.51 654.86" stroke="hsl(34.30000000000001, 97.4%, 58.1%)" stroke-width="1.5"></path><path d="M1447.51 654.86L1592.02 645.68" stroke="hsl(34.30000000000001, 97.4%, 58.1%)" stroke-width="1.5"></path><path d="M1447.51 654.86L1598.66 545.01" stroke="hsl(34.30000000000001, 97.4%, 58.1%)" stroke-width="1.5"></path><path d="M1571.7 -105.51L1571.7 -105.51" stroke="hsl(34.30000000000001, 97.4%, 58.1%)" stroke-width="1.5"></path><path d="M1571.7 -105.51L1609.99 100.09" stroke="hsl(34.30000000000001, 97.4%, 58.1%)" stroke-width="1.5"></path><path d="M1571.7 -105.51L1399.9 91.94" stroke="hsl(34.30000000000001, 97.4%, 58.1%)" stroke-width="1.5"></path><path d="M1609.99 100.09L1609.99 100.09" stroke="hsl(34.30000000000001, 97.4%, 58.1%)" stroke-width="1.5"></path><path d="M1609.99 100.09L1558.4 260.22" stroke="hsl(34.30000000000001, 97.4%, 58.1%)" stroke-width="1.5"></path><path d="M1609.99 100.09L1455.64 358.32" stroke="hsl(34.30000000000001, 97.4%, 58.1%)" stroke-width="1.5"></path><path d="M1609.99 100.09L1608.67 401.46" stroke="hsl(34.30000000000001, 97.4%, 58.1%)" stroke-width="1.5"></path><path d="M1558.4 260.22L1558.4 260.22" stroke="hsl(34.30000000000001, 97.4%, 58.1%)" stroke-width="1.5"></path><path d="M1558.4 260.22L1608.67 401.46" stroke="hsl(34.30000000000001, 97.4%, 58.1%)" stroke-width="1.5"></path><path d="M1608.67 401.46L1608.67 401.46" stroke="hsl(34.30000000000001, 97.4%, 58.1%)" stroke-width="1.5"></path><path d="M1592.02 645.68L1592.02 645.68" stroke="hsl(34.30000000000001, 97.4%, 58.1%)" stroke-width="1.5"></path><circle r="25" cx="1009.21" cy="402.11" fill="url(#SvgjsRadialGradient1015)"></circle><circle r="25" cx="992.94" cy="500.62" fill="url(#SvgjsRadialGradient1015)"></circle><circle r="25" cx="1102.46" cy="252.09" fill="url(#SvgjsRadialGradient1015)"></circle><circle r="25" cx="1253.44" cy="-64.53" fill="url(#SvgjsRadialGradient1015)"></circle><circle r="25" cx="1416.76" cy="545.01" fill="url(#SvgjsRadialGradient1015)"></circle><circle r="25" cx="1598.66" cy="545.01" fill="url(#SvgjsRadialGradient1015)"></circle><circle r="5" cx="-91.09" cy="494.31" fill="#f0c181"></circle><circle r="5" cx="-103.48" cy="710.42" fill="#f0c181"></circle><circle r="5" cx="50.64" cy="533.52" fill="#f0c181"></circle><circle r="5" cx="84.5" cy="646.84" fill="#f0c181"></circle><circle r="5" cx="220.79" cy="487.68" fill="#f0c181"></circle><circle r="5" cx="205.28" cy="701.08" fill="#f0c181"></circle><circle r="5" cx="394.1" cy="512.71" fill="#f0c181"></circle><circle r="5" cx="549.38" cy="402.25" fill="#f0c181"></circle><circle r="5" cx="549.91" cy="523.89" fill="#f0c181"></circle><circle r="5" cx="527.02" cy="637.65" fill="#f0c181"></circle><circle r="5" cx="649.06" cy="559.84" fill="#f0c181"></circle><circle r="5" cx="669.7" cy="687.88" fill="#f0c181"></circle><circle r="5" cx="832.93" cy="402.57" fill="#f0c181"></circle><circle r="5" cx="838.1" cy="500.94" fill="#f0c181"></circle><circle r="5" cx="856.87" cy="652.79" fill="#f0c181"></circle><circle r="5" cx="1009.47" cy="659.25" fill="#f0c181"></circle><circle r="5" cx="1159.46" cy="-79.29" fill="#f0c181"></circle><circle r="5" cx="1129.13" cy="102.07" fill="#f0c181"></circle><circle r="5" cx="1121.73" cy="349.74" fill="#f0c181"></circle><circle r="5" cx="1158.59" cy="554.06" fill="#f0c181"></circle><circle r="5" cx="1101.83" cy="695.47" fill="#f0c181"></circle><circle r="5" cx="1280.61" cy="66.64" fill="#f0c181"></circle><circle r="5" cx="1267.42" cy="261.85" fill="#f0c181"></circle><circle r="5" cx="1284.22" cy="529.49" fill="#f0c181"></circle><circle r="5" cx="1306.57" cy="696.73" fill="#f0c181"></circle><circle r="5" cx="1395.72" cy="-49" fill="#f0c181"></circle><circle r="5" cx="1399.9" cy="91.94" fill="#f0c181"></circle><circle r="5" cx="1455.64" cy="358.32" fill="#f0c181"></circle><circle r="5" cx="1447.51" cy="654.86" fill="#f0c181"></circle><circle r="5" cx="1571.7" cy="-105.51" fill="#f0c181"></circle><circle r="5" cx="1609.99" cy="100.09" fill="#f0c181"></circle><circle r="5" cx="1558.4" cy="260.22" fill="#f0c181"></circle><circle r="5" cx="1608.67" cy="401.46" fill="#f0c181"></circle><circle r="5" cx="1592.02" cy="645.68" fill="#f0c181"></circle></g><defs><mask id="SvgjsMask1014"><rect width="1440" height="560" fill="#ffffff"></rect></mask><radialGradient id="SvgjsRadialGradient1015"><stop stop-color="#ffffff" offset="0.1"></stop><stop stop-color="rgba(225, 130, 3, 1)" offset="0.2"></stop><stop stop-color="rgba(225, 130, 3, 0)" offset="1"></stop></radialGradient></defs></svg>